<svg xmlns="http://www.w3.org/2000/svg" width="24" height="24" viewBox="0 0 24 24"><g><g><g/><g><path fill="none" stroke="#fff" stroke-linecap="round" stroke-linejoin="round" stroke-miterlimit="20" stroke-width="2" d="M9 7c-3 0-4 3-4 5.498C5 15.498 7 20 9 20c1.088 0 1.679-.502 3-.502 1.312 0 1.5.502 3 .502s4-3 4-5c0 0-2.472-.405-2.5-3-.019-2.172 2.416-3 2.5-3-1-1.494-3-2-3.5-2-1.433-.113-2.83 1-3.5 1-.68 0-1.9-1-3-1z"/></g><g><path fill="none" stroke="#fff" stroke-linecap="round" stroke-linejoin="round" stroke-miterlimit="20" stroke-width="2" d="M12 4a2 2 0 0 0 2-2 2 2 0 0 0-2 2"/></g></g></g></svg>