<?xml version="1.0" encoding="utf-8"?>
<!-- Generator: Adobe Illustrator 24.1.2, SVG Export Plug-In . SVG Version: 6.00 Build 0)  -->
<svg version="1.1" id="Layer_1" xmlns="http://www.w3.org/2000/svg" xmlns:xlink="http://www.w3.org/1999/xlink" x="0px" y="0px"
	 viewBox="0 0 48 38" style="enable-background:new 0 0 48 38;" xml:space="preserve">
<style type="text/css">
	.st0{fill:#FFFFFF;}
</style>
<g>
	<g>
		<g>
			<g>
				<g>
					<path class="st0" d="M14.7,0.3C14.4,0,14-0.1,13.6,0.1C13.3,0.2,13,0.6,13,1v4.1C5.5,5.6-0.3,12,0,19.5C0.3,27,6.5,33,14,33h4
						c1.1,0,2-0.9,2-2c0-1.1-0.9-2-2-2h-4C8.5,29,4,24.5,4,19S8.5,9,14,9h7c0.6,0,1-0.4,1-1c0-0.3-0.1-0.5-0.3-0.7L14.7,0.3z"/>
				</g>
				<g>
					<path class="st0" d="M34,5h-4c-1.1,0-2,0.9-2,2s0.9,2,2,2h4c5.5,0,10,4.5,10,10s-4.5,10-10,10h-7c-0.4,0-0.8,0.2-0.9,0.6
						c-0.2,0.4-0.1,0.8,0.2,1.1l7,7c0.2,0.2,0.4,0.3,0.7,0.3c0.1,0,0.3,0,0.4-0.1c0.4-0.2,0.6-0.5,0.6-0.9V33
						c7.5-0.5,13.3-6.9,13-14.5C47.7,11,41.5,5,34,5z"/>
				</g>
			</g>
		</g>
	</g>
</g>
</svg>
