<svg xmlns="http://www.w3.org/2000/svg" width="24" height="24" viewBox="0 0 24 24"><g><g><g/><g><path fill="none" stroke="#fff" stroke-linecap="round" stroke-linejoin="round" stroke-miterlimit="20" stroke-width="2" d="M10 10.105C10 9.495 10.495 9 11.105 9h1.79c.61 0 1.105.495 1.105 1.105v9.79c0 .61-.495 1.105-1.105 1.105h-1.79c-.61 0-1.105-.495-1.105-1.105z"/></g><g><path fill="none" stroke="#fff" stroke-linecap="round" stroke-linejoin="round" stroke-miterlimit="20" stroke-width="2" d="M17 4.105C17 3.495 17.495 3 18.105 3h1.79C20.505 3 21 3.495 21 4.105v15.79c0 .61-.495 1.105-1.105 1.105h-1.79c-.61 0-1.105-.495-1.105-1.105z"/></g><g><path fill="none" stroke="#fff" stroke-linecap="round" stroke-linejoin="round" stroke-miterlimit="20" stroke-width="2" d="M5 21a2 2 0 1 0 0-4 2 2 0 0 0 0 4z"/></g></g></g></svg>